<svg width="20" height="21" viewBox="0 0 20 21" fill="none" xmlns="http://www.w3.org/2000/svg">
<path d="M2.17061 20.9688C1.29629 20.9688 0.79668 20.5941 0.671778 19.9696C0.29707 18.9703 1.29629 18.3458 1.671 18.096C2.42041 17.5964 2.79512 17.2217 2.92002 16.847C2.92002 16.5972 2.79512 16.3474 2.54532 15.9727C2.54532 15.9727 2.54532 15.8478 2.42041 15.8478C1.17139 14.224 0.546875 12.2256 0.546875 10.2272C0.546875 5.10616 4.79356 0.984375 9.91456 0.984375C15.0356 0.984375 19.2822 5.10616 19.2822 10.2272C19.2822 15.3482 15.0356 19.4699 9.91456 19.4699C9.29005 19.4699 8.66554 19.345 8.04103 19.2201C4.79356 20.8439 2.42041 20.9688 2.42041 20.9688C2.29551 20.9688 2.29551 20.9688 2.17061 20.9688ZM4.66866 14.5987C5.29317 15.4731 5.54297 16.4723 5.41807 17.3466C5.41807 17.4715 5.29317 17.7213 5.29317 17.8462C5.91768 17.5964 6.54219 17.3466 7.29161 16.9719C7.54142 16.847 7.79122 16.7221 8.04103 16.847H8.16593C8.66554 16.9719 9.29005 17.0968 9.91456 17.0968C13.6616 17.0968 16.7842 14.0991 16.7842 10.3521C16.7842 6.60499 13.6616 3.48242 9.91456 3.48242C6.16749 3.48242 3.04492 6.48008 3.04492 10.2272C3.04492 11.726 3.54453 13.2248 4.54376 14.3489C4.54376 14.4738 4.66866 14.4738 4.66866 14.5987Z" fill="white"/>
</svg>
