<svg width="15" height="33" viewBox="0 0 15 33" fill="none" xmlns="http://www.w3.org/2000/svg">
<g clip-path="url(#clip0_5_4643)">
<path d="M13.1246 20.2032C12.8575 20.204 12.5937 20.2623 12.3511 20.3741C12.1084 20.4859 11.8927 20.6485 11.7184 20.851L3.70699 16.8451C3.76386 16.5869 3.76386 16.3195 3.70699 16.0613L11.7184 12.0554C12.0174 12.3907 12.4283 12.6056 12.8742 12.66C13.3202 12.7144 13.7707 12.6045 14.1415 12.3509C14.5123 12.0972 14.778 11.7172 14.889 11.2819C14.9999 10.8465 14.9485 10.3857 14.7444 9.98548C14.5402 9.58528 14.1973 9.27314 13.7798 9.10741C13.3622 8.94168 12.8986 8.93371 12.4755 9.085C12.0525 9.23628 11.6991 9.53646 11.4813 9.92941C11.2636 10.3224 11.1964 10.7812 11.2923 11.2201L3.2809 15.226C3.03067 14.9369 2.69805 14.7313 2.32763 14.6366C1.95722 14.5419 1.56671 14.5627 1.20846 14.6962C0.850203 14.8298 0.541331 15.0696 0.323245 15.3836C0.105158 15.6977 -0.0117187 16.0709 -0.0117188 16.4532C-0.0117187 16.8355 0.105158 17.2087 0.323245 17.5227C0.541331 17.8367 0.850203 18.0766 1.20846 18.2101C1.56671 18.3436 1.95722 18.3645 2.32763 18.2698C2.69805 18.1751 3.03067 17.9694 3.2809 17.6804L11.2923 21.6863C11.2113 22.0655 11.2498 22.4604 11.4025 22.8168C11.5552 23.1732 11.8147 23.4734 12.1451 23.6762C12.4756 23.879 12.8608 23.9744 13.2477 23.9492C13.6346 23.924 14.0042 23.7795 14.3055 23.5356C14.6069 23.2917 14.8253 22.9603 14.9305 22.5871C15.0357 22.214 15.0227 21.8174 14.8932 21.4519C14.7637 21.0865 14.5241 20.7701 14.2074 20.5465C13.8906 20.3229 13.5124 20.2029 13.1246 20.2032ZM13.1246 9.89068C13.3101 9.89068 13.4913 9.94567 13.6455 10.0487C13.7997 10.1517 13.9198 10.2981 13.9908 10.4694C14.0617 10.6407 14.0803 10.8292 14.0441 11.0111C14.008 11.1929 13.9187 11.36 13.7876 11.4911C13.6564 11.6222 13.4894 11.7115 13.3075 11.7477C13.1257 11.7838 12.9372 11.7653 12.7659 11.6943C12.5946 11.6234 12.4482 11.5032 12.3451 11.349C12.2421 11.1949 12.1871 11.0136 12.1871 10.8282C12.1871 10.5795 12.2859 10.3411 12.4617 10.1653C12.6376 9.98946 12.876 9.89068 13.1246 9.89068ZM1.87465 17.3907C1.68923 17.3907 1.50797 17.3357 1.3538 17.2327C1.19963 17.1297 1.07947 16.9833 1.00851 16.8119C0.937553 16.6406 0.918988 16.4521 0.955161 16.2703C0.991335 16.0884 1.08062 15.9214 1.21173 15.7903C1.34285 15.6592 1.50989 15.5699 1.69175 15.5337C1.87361 15.4975 2.06211 15.5161 2.23341 15.587C2.40472 15.658 2.55114 15.7782 2.65415 15.9323C2.75716 16.0865 2.81215 16.2678 2.81215 16.4532C2.81215 16.7018 2.71338 16.9403 2.53756 17.1161C2.36174 17.2919 2.12329 17.3907 1.87465 17.3907ZM13.1246 23.0157C12.9392 23.0157 12.758 22.9607 12.6038 22.8577C12.4496 22.7547 12.3295 22.6083 12.2585 22.4369C12.1876 22.2656 12.169 22.0771 12.2052 21.8953C12.2413 21.7134 12.3306 21.5464 12.4617 21.4153C12.5928 21.2842 12.7599 21.1949 12.9418 21.1587C13.1236 21.1225 13.3121 21.1411 13.4834 21.212C13.6547 21.283 13.8011 21.4032 13.9042 21.5573C14.0072 21.7115 14.0621 21.8928 14.0621 22.0782C14.0621 22.3268 13.9634 22.5653 13.7876 22.7411C13.6117 22.9169 13.3733 23.0157 13.1246 23.0157Z" fill="white" stroke="white" stroke-width="0.46875"/>
</g>
<defs>
<clipPath id="clip0_5_4643">
<rect width="15" height="32" fill="white" transform="translate(0 0.453125)"/>
</clipPath>
</defs>
</svg>
